<svg width="16" height="16" viewBox="0 0 16 16" fill="none" xmlns="http://www.w3.org/2000/svg">
<path d="M13.1625 4H11.8281V4.66563C11.8281 5.4 11.2312 6 10.4937 6C9.75936 6 9.15936 5.40313 9.15936 4.66563V4H6.49374V4.66563C6.49374 5.4 5.89686 6 5.15936 6C4.42499 6 3.82499 5.40313 3.82499 4.66563V4H2.49686C2.49686 10.6656 1.83124 16 1.83124 16H13.8312C13.8281 16 13.1625 10.6656 13.1625 4ZM5.16249 5.33437C5.53124 5.33437 5.82811 5.0375 5.82811 4.66875V3.33437C5.82811 2.22812 6.72186 1.33438 7.82811 1.33438C8.93436 1.33438 9.82811 2.22812 9.82811 3.33437V4.66875C9.82811 5.0375 10.125 5.33437 10.4937 5.33437C10.8625 5.33437 11.1594 5.0375 11.1594 4.66875V3.33437C11.1625 1.49375 9.66874 0 7.82811 0C5.98749 0 4.49374 1.49375 4.49374 3.33437V4.66875C4.49686 5.03437 4.79374 5.33437 5.16249 5.33437Z" fill="oklch(0.645 0.246 16.439)
"/>
</svg>
